inDegrees=yes
name=ik_MT_012005D6_009-001_orientations
DataType=double
version=3
OpenSimVersion=4.2-2021-02-10-d1304141c
endheader
time	pelvis_tilt	pelvis_list	pelvis_rotation	pelvis_tx	pelvis_ty	pelvis_tz	hip_flexion_r	hip_adduction_r	hip_rotation_r	knee_angle_r	knee_angle_r_beta	ankle_angle_r	subtalar_angle_r	mtp_angle_r	hip_flexion_l	hip_adduction_l	hip_rotation_l	knee_angle_l	knee_angle_l_beta	ankle_angle_l	subtalar_angle_l	mtp_angle_l	lumbar_extension	lumbar_bending	lumbar_rotation	arm_flex_r	arm_add_r	arm_rot_r	elbow_flex_r	pro_sup_r	wrist_flex_r	wrist_dev_r	arm_flex_l	arm_add_l	arm_rot_l	elbow_flex_l	pro_sup_l	wrist_flex_l	wrist_dev_l	pelvis_tilt	pelvis_list	pelvis_rotation	pelvis_tx	pelvis_ty	pelvis_tz	hip_flexion_r	hip_adduction_r	hip_rotation_r	knee_angle_r	knee_angle_r_beta	ankle_angle_r	subtalar_angle_r	mtp_angle_r	hip_flexion_l	hip_adduction_l	hip_rotation_l	knee_angle_l	knee_angle_l_beta	ankle_angle_l	subtalar_angle_l	mtp_angle_l	lumbar_extension	lumbar_bending	lumbar_rotation	arm_flex_r	arm_add_r	arm_rot_r	elbow_flex_r	pro_sup_r	wrist_flex_r	wrist_dev_r	arm_flex_l	arm_add_l	arm_rot_l	elbow_flex_l	pro_sup_l	wrist_flex_l	wrist_dev_l
0.7500000000000004	-53.94071531217244	89.93516668120915	-59.24892667153807	0	0.9399999999999999	0	0.7022699490601362	0.07397791292548683	-0.2886594699143382	0.7527244221929232	0.01313751952743839	0.1303082992688115	0	0	0.8154340443187843	0.007966047046545041	-0.4073374988688776	0.7887767273745313	0.01376675095579126	0.07571234162800859	0	0	-0.08077478502749744	-0.05632258318001968	0.2678768857804424	0	-13.34800876540078	0	74.16037522736815	44.99902606762195	0	0	0	-13.34800876540078	0	74.16037522736815	44.99902606762195	0	0	-53.94071531217244	89.93516668120915	-59.24892667153807	0	0.9399999999999999	0	0.7022699490601362	0.07397791292548683	-0.2886594699143382	0.7527244221929232	0.01313751952743839	0.1303082992688115	0	0	0.8154340443187843	0.007966047046545041	-0.4073374988688776	0.7887767273745313	0.01376675095579126	0.07571234162800859	0	0	-0.08077478502749744	-0.05632258318001968	0.2678768857804424	0	-13.34800876540078	0	74.16037522736815	44.99902606762195	0	0	0	-13.34800876540078	0	74.16037522736815	44.99902606762195	0	0
0.7600000000000005	-53.94147729552853	89.9371693870562	-59.26693581786233	0	0.9399999999999999	0	0.7042451490414778	0.07050583880934867	-0.2704335343188987	0.7508572409821286	0.01310493106757864	0.1282210080146421	0	0	0.8079544921877412	0.008070956126647114	-0.4134516028665008	0.7849320329011591	0.01369964837849768	0.08419015858867826	0	0	-0.08389734266122796	-0.05912040081152234	0.2686055057516284	0	-13.39383503068956	0	74.20444156133591	44.99915237127031	0	0	0	-13.39383503068956	0	74.20444156133591	44.99915237127031	0	0	-53.94147729552853	89.9371693870562	-59.26693581786233	0	0.9399999999999999	0	0.7042451490414778	0.07050583880934867	-0.2704335343188987	0.7508572409821286	0.01310493106757864	0.1282210080146421	0	0	0.8079544921877412	0.008070956126647114	-0.4134516028665008	0.7849320329011591	0.01369964837849768	0.08419015858867826	0	0	-0.08389734266122796	-0.05912040081152234	0.2686055057516284	0	-13.39383503068956	0	74.20444156133591	44.99915237127031	0	0	0	-13.39383503068956	0	74.20444156133591	44.99915237127031	0	0
0.7700000000000005	-53.93628147597233	89.93889778363868	-59.28007647347999	0	0.9399999999999999	0	0.705313598834356	0.06412803531160907	-0.2692654051493372	0.7458405861506054	0.01301737392333249	0.1169199914634885	0	0	0.8049016802834842	0.009886152373768307	-0.407819813169972	0.7802748962995563	0.01361836601108458	0.07796364942478838	0	0	-0.09128190672867048	-0.0613565015312608	0.2773962456996247	0	-13.43832248764802	0	74.24613256462837	44.99926213743535	0	0	0	-13.43832248764802	0	74.24613256462837	44.99926213743535	0	0	-53.93628147597233	89.93889778363868	-59.28007647347999	0	0.9399999999999999	0	0.705313598834356	0.06412803531160907	-0.2692654051493372	0.7458405861506054	0.01301737392333249	0.1169199914634885	0	0	0.8049016802834842	0.009886152373768307	-0.407819813169972	0.7802748962995563	0.01361836601108458	0.07796364942478838	0	0	-0.09128190672867048	-0.0613565015312608	0.2773962456996247	0	-13.43832248764802	0	74.24613256462837	44.99926213743535	0	0	0	-13.43832248764802	0	74.24613256462837	44.99926213743535	0	0
0.7800000000000005	-53.9364880516577	89.96377087694181	-59.29355048641381	0	0.9399999999999999	0	1.020194524079292	0.04106387854039345	-0.3474733288211178	1.304227729834058	0.02276306808141539	0.4046548730080198	0	0	1.109173478397402	0.007675580834257565	-0.4996860107064861	1.327718208468259	0.02317305427645157	0.3661434974271001	0	0	-0.07204068999785736	-0.07586302190956129	0.2797887158106384	0	-13.48171954386081	0	74.28575678549586	44.99935789493654	0	0	0	-13.48171954386081	0	74.28575678549586	44.99935789493654	0	0	-53.9364880516577	89.96377087694181	-59.29355048641381	0	0.9399999999999999	0	1.020194524079292	0.04106387854039345	-0.3474733288211178	1.304227729834058	0.02276306808141539	0.4046548730080198	0	0	1.109173478397402	0.007675580834257565	-0.4996860107064861	1.327718208468259	0.02317305427645157	0.3661434974271001	0	0	-0.07204068999785736	-0.07586302190956129	0.2797887158106384	0	-13.48171954386081	0	74.28575678549586	44.99935789493654	0	0	0	-13.48171954386081	0	74.28575678549586	44.99935789493654	0	0
0.7900000000000005	-53.94551408849819	89.93073801151992	-59.3016996758038	0	0.9399999999999999	0	0.6983728315333506	0.05361602296906943	-0.2461781053379863	0.7452063071086606	0.01300630366567415	0.1208809916073787	0	0	0.7796794735962488	0.005078631128916387	-0.4287386234735238	0.7672936398679843	0.01339180034530795	0.08364306079280706	0	0	-0.1058726080059534	-0.06135666618376277	0.2839040812101424	0	-13.50418723329173	0	74.30598513335023	44.99940452003447	0	0	0	-13.50418723329173	0	74.30598513335023	44.99940452003447	0	0	-53.94551408849819	89.93073801151992	-59.3016996758038	0	0.9399999999999999	0	0.6983728315333506	0.05361602296906943	-0.2461781053379863	0.7452063071086606	0.01300630366567415	0.1208809916073787	0	0	0.7796794735962488	0.005078631128916387	-0.4287386234735238	0.7672936398679843	0.01339180034530795	0.08364306079280706	0	0	-0.1058726080059534	-0.06135666618376277	0.2839040812101424	0	-13.50418723329173	0	74.30598513335023	44.99940452003447	0	0	0	-13.50418723329173	0	74.30598513335023	44.99940452003447	0	0
